<svg xmlns="http://www.w3.org/2000/svg" width="265.87" height="105" viewBox="0 0 265.87 105">
  <g id="PROFINET__rgb_2020" data-name="PROFINET _rgb_2020" transform="translate(-29.502 -187.429)">
    <g id="Gruppe_1" data-name="Gruppe 1" transform="translate(66.419 187.429)">
      <path id="Pfad_1" data-name="Pfad 1" d="M138.8,187.429s-6.562,0-7.956,6.562l-5.58,26.251s-1.395,6.562,5.168,6.562h26.25s6.562,0,7.957-6.562l5.579-26.251s1.4-6.562-5.167-6.562Z" transform="translate(-125.136 -187.429)" fill="#2ca67b"/>
    </g>
    <g id="Gruppe_2" data-name="Gruppe 2" transform="translate(29.502 253.053)">
      <path id="Pfad_2" data-name="Pfad 2" d="M43.162,357.43s-6.563,0-7.958,6.563l-5.579,26.25s-1.395,6.563,5.167,6.563h26.25s6.562,0,7.957-6.563l5.58-26.25s1.395-6.563-5.168-6.563Z" transform="translate(-29.502 -357.43)" fill="#2ca67b"/>
    </g>
    <g id="Gruppe_3" data-name="Gruppe 3" transform="translate(158.294 187.429)">
      <path id="Pfad_3" data-name="Pfad 3" d="M376.8,187.429s-6.562,0-7.956,6.562l-5.58,26.251s-1.4,6.562,5.167,6.562h26.25s6.562,0,7.957-6.562l5.579-26.251s1.395-6.562-5.167-6.562Z" transform="translate(-363.14 -187.429)" fill="#2ca67b"/>
    </g>
    <g id="Gruppe_4" data-name="Gruppe 4" transform="translate(121.376 253.053)">
      <path id="Pfad_4" data-name="Pfad 4" d="M281.165,357.43s-6.562,0-7.957,6.563l-5.58,26.25s-1.395,6.563,5.167,6.563h26.25s6.562,0,7.956-6.563l5.58-26.25s1.395-6.563-5.168-6.563Z" transform="translate(-267.505 -357.43)" fill="#2ca67b"/>
    </g>
    <g id="Gruppe_5" data-name="Gruppe 5" transform="translate(112.356 187.429)">
      <path id="Pfad_5" data-name="Pfad 5" d="M257.8,187.429s-6.562,0-7.956,6.562l-5.58,26.251s-1.4,6.562,5.168,6.562h26.25s6.562,0,7.957-6.562l5.58-26.251s1.395-6.562-5.167-6.562Z" transform="translate(-244.137 -187.429)" fill="#2ca67b"/>
    </g>
    <g id="Gruppe_6" data-name="Gruppe 6" transform="translate(75.439 253.053)">
      <path id="Pfad_6" data-name="Pfad 6" d="M162.164,357.43s-6.562,0-7.957,6.563l-5.579,26.25s-1.395,6.563,5.167,6.563h26.25s6.562,0,7.956-6.563l5.58-26.25s1.395-6.563-5.168-6.563Z" transform="translate(-148.504 -357.43)" fill="#2ca67b"/>
    </g>
    <g id="Gruppe_7" data-name="Gruppe 7" transform="translate(204.231 187.429)">
      <path id="Pfad_7" data-name="Pfad 7" d="M495.8,187.429s-6.562,0-7.957,6.562l-5.579,26.251s-1.4,6.562,5.168,6.562h26.25s6.562,0,7.957-6.562l5.579-26.251s1.395-6.562-5.167-6.562Z" transform="translate(-482.141 -187.429)" fill="#2ca67b"/>
    </g>
    <g id="Gruppe_8" data-name="Gruppe 8" transform="translate(167.314 253.053)">
      <path id="Pfad_8" data-name="Pfad 8" d="M400.167,357.43s-6.562,0-7.958,6.563l-5.58,26.25s-1.395,6.563,5.168,6.563h26.25s6.562,0,7.956-6.563l5.58-26.25s1.395-6.563-5.168-6.563Z" transform="translate(-386.505 -357.43)" fill="#2ca67b"/>
    </g>
    <g id="Gruppe_9" data-name="Gruppe 9" transform="translate(250.169 187.429)">
      <path id="Pfad_9" data-name="Pfad 9" d="M614.8,187.429s-6.562,0-7.957,6.562l-5.579,26.251s-1.4,6.562,5.167,6.562h26.25s6.563,0,7.958-6.562l5.579-26.251s1.395-6.562-5.167-6.562Z" transform="translate(-601.143 -187.429)" fill="#2ca67b"/>
    </g>
    <g id="Gruppe_10" data-name="Gruppe 10" transform="translate(213.251 253.053)">
      <path id="Pfad_10" data-name="Pfad 10" d="M519.168,357.43s-6.563,0-7.958,6.563l-5.579,26.25s-1.395,6.563,5.167,6.563h26.25s6.562,0,7.958-6.563l5.579-26.25s1.395-6.563-5.168-6.563Z" transform="translate(-505.507 -357.43)" fill="#2ca67b"/>
    </g>
    <g id="Gruppe_11" data-name="Gruppe 11" transform="translate(37.993 233.366)">
      <path id="Pfad_11" data-name="Pfad 11" d="M54.29,306.429H300.384L297.6,319.555H51.5Z" transform="translate(-51.5 -306.429)" fill="#2ca67b"/>
    </g>
    <g id="Gruppe_12" data-name="Gruppe 12" transform="translate(79.322 224.179)">
      <path id="Pfad_12" data-name="Pfad 12" d="M161.352,282.63h6.563l-2.79,13.126h-6.563Z" transform="translate(-158.563 -282.63)" fill="#2ca67b"/>
    </g>
    <g id="Gruppe_13" data-name="Gruppe 13" transform="translate(52.447 242.554)">
      <path id="Pfad_13" data-name="Pfad 13" d="M91.732,330.23H98.3l-2.79,13.125H88.942Z" transform="translate(-88.942 -330.23)" fill="#2ca67b"/>
    </g>
    <g id="Gruppe_14" data-name="Gruppe 14" transform="translate(125.259 224.179)">
      <path id="Pfad_14" data-name="Pfad 14" d="M280.353,282.63h6.563l-2.79,13.126h-6.563Z" transform="translate(-277.563 -282.63)" fill="#2ca67b"/>
    </g>
    <g id="Gruppe_15" data-name="Gruppe 15" transform="translate(98.384 242.554)">
      <path id="Pfad_15" data-name="Pfad 15" d="M210.734,330.23H217.3l-2.79,13.125h-6.564Z" transform="translate(-207.943 -330.23)" fill="#2ca67b"/>
    </g>
    <g id="Gruppe_16" data-name="Gruppe 16" transform="translate(171.196 224.179)">
      <path id="Pfad_16" data-name="Pfad 16" d="M399.353,282.63h6.563l-2.79,13.126h-6.564Z" transform="translate(-396.563 -282.63)" fill="#2ca67b"/>
    </g>
    <g id="Gruppe_17" data-name="Gruppe 17" transform="translate(144.323 242.554)">
      <path id="Pfad_17" data-name="Pfad 17" d="M329.737,330.23H336.3l-2.79,13.125h-6.562Z" transform="translate(-326.947 -330.23)" fill="#2ca67b"/>
    </g>
    <g id="Gruppe_18" data-name="Gruppe 18" transform="translate(217.134 224.179)">
      <path id="Pfad_18" data-name="Pfad 18" d="M518.357,282.63h6.562l-2.79,13.126h-6.563Z" transform="translate(-515.566 -282.63)" fill="#2ca67b"/>
    </g>
    <g id="Gruppe_19" data-name="Gruppe 19" transform="translate(190.26 242.554)">
      <path id="Pfad_19" data-name="Pfad 19" d="M448.739,330.23H455.3l-2.791,13.125h-6.562Z" transform="translate(-445.949 -330.23)" fill="#2ca67b"/>
    </g>
    <g id="Gruppe_20" data-name="Gruppe 20" transform="translate(263.073 224.179)">
      <path id="Pfad_20" data-name="Pfad 20" d="M637.36,282.63h6.563l-2.791,13.126H634.57Z" transform="translate(-634.57 -282.63)" fill="#2ca67b"/>
    </g>
    <g id="Gruppe_21" data-name="Gruppe 21" transform="translate(236.198 242.554)">
      <path id="Pfad_21" data-name="Pfad 21" d="M567.741,330.23H574.3l-2.79,13.125h-6.563Z" transform="translate(-564.951 -330.23)" fill="#2ca67b"/>
    </g>
    <g id="Gruppe_25" data-name="Gruppe 25" transform="translate(78.121 193.832)">
      <g id="Gruppe_22" data-name="Gruppe 22" transform="translate(0)">
        <path id="Pfad_22" data-name="Pfad 22" d="M164.983,207.906a13.976,13.976,0,0,1,2.811-.234c3.306,0,5,1.555,4.377,4.473-.652,3.072-3.2,4.822-6.781,4.822a9.089,9.089,0,0,1-2.292-.195Zm-9.532,22.52H160.2l2.1-9.879a12.926,12.926,0,0,0,2.3.155,13.885,13.885,0,0,0,8.88-2.8,10.1,10.1,0,0,0,3.521-5.95,6.176,6.176,0,0,0-1.336-5.8c-1.375-1.4-3.785-2.139-7.285-2.139a43.575,43.575,0,0,0-7.428.544Z" transform="translate(-155.451 -204.016)" fill="#fff"/>
      </g>
      <g id="Gruppe_23" data-name="Gruppe 23" transform="translate(7.073 65.82)">
        <path id="Pfad_23" data-name="Pfad 23" d="M178.168,400.738l1.991-9.373c.918-4.318,1.616-7.778,2.14-11.163l.124-.039a69.4,69.4,0,0,0,2.788,9.023l4.39,11.552h4.94l5.572-26.215H195.68l-1.942,9.14c-.852,4.007-1.455,7.391-1.888,10.891h-.077a57.957,57.957,0,0,0-2.6-8.789l-4.378-11.241h-5.445l-5.572,26.215Z" transform="translate(-173.773 -374.523)" fill="#fff"/>
      </g>
      <g id="Gruppe_24" data-name="Gruppe 24" transform="translate(45.743 0.001)">
        <path id="Pfad_24" data-name="Pfad 24" d="M283.488,207.868a14.6,14.6,0,0,1,3.005-.233c3.112,0,4.853,1.323,4.241,4.2-.554,2.606-2.94,4.317-6.168,4.317h-2.839Zm-9.54,22.559h4.745l2.291-10.774H283.4c2.706.078,3.719,1.167,3.73,4.59a33.069,33.069,0,0,0,.436,6.184H292.5c-.33-1.011-.385-4.045-.507-7.312-.124-2.529-.863-4.356-2.582-5.057l.025-.117a9.264,9.264,0,0,0,6.142-6.573,5.567,5.567,0,0,0-1.14-5.251c-1.436-1.478-3.871-2.1-7.643-2.1a47.7,47.7,0,0,0-7.351.544Z" transform="translate(-273.948 -204.018)" fill="#fff"/>
      </g>
    </g>
    <g id="Gruppe_26" data-name="Gruppe 26" transform="translate(134.262 259.651)">
      <path id="Pfad_25" data-name="Pfad 25" d="M300.885,400.737l5.571-26.215H321.7l-.835,3.929H310.406l-1.438,6.767h9.879l-.827,3.889h-9.879l-1.637,7.7H317.55l-.835,3.929Z" transform="translate(-300.885 -374.522)" fill="#fff"/>
    </g>
    <g id="Gruppe_28" data-name="Gruppe 28" transform="translate(168.161 193.598)">
      <g id="Gruppe_27" data-name="Gruppe 27">
        <path id="Pfad_26" data-name="Pfad 26" d="M403.536,207.223c4.785,0,6.234,4.705,5.184,9.645-1.166,5.485-4.689,9.8-9.317,9.8-4.589,0-6.363-4.279-5.231-9.607,1.149-5.406,4.62-9.841,9.365-9.841m.926-3.812c-7.39,0-13.652,5.679-15.364,13.73-1.637,7.7,1.831,13.34,9.222,13.34,7.234,0,13.629-5.016,15.5-13.808,1.588-7.467-1.692-13.263-9.355-13.263" transform="translate(-388.699 -203.411)" fill="#fff"/>
      </g>
    </g>
    <g id="Gruppe_29" data-name="Gruppe 29" transform="translate(182.275 259.651)">
      <path id="Pfad_27" data-name="Pfad 27" d="M428.011,400.737l4.72-22.209h-7.468l.852-4.007h19.8l-.851,4.007h-7.545L432.8,400.737Z" transform="translate(-425.264 -374.522)" fill="#fff"/>
    </g>
    <g id="Gruppe_30" data-name="Gruppe 30" transform="translate(216.906 194.027)">
      <path id="Pfad_28" data-name="Pfad 28" d="M514.975,230.736l5.572-26.214h15.129l-.835,3.928H524.5l-1.538,7.235H532.6l-.835,3.928h-9.646l-2.364,11.124Z" transform="translate(-514.975 -204.521)" fill="#fff"/>
    </g>
    <g id="Gruppe_31" data-name="Gruppe 31" transform="translate(267.608 194.027)">
      <path id="Pfad_29" data-name="Pfad 29" d="M651.891,204.521h4.784L651.1,230.736h-4.784Z" transform="translate(-646.318 -204.521)" fill="#fff"/>
    </g>
  </g>
</svg>
